<?xml version="1.0" encoding="UTF-8"?><svg width="176" height="675" viewBox="0 0 176 675" xmlns="http://www.w3.org/2000/svg" xmlns:xlink="http://www.w3.org/1999/xlink"><svg width="47" height="47" viewBox="-306 -517 612 822" id="Commons-logo_sister" xmlns="http://www.w3.org/2000/svg"><defs><clipPath id="aa"><circle r="298"/></clipPath></defs><circle r="100" fill="#900"/><g fill="#069"><g id="ab" clip-path="url(#aa)"><path d="M-11 180v118h22V180"/><path d="M-43 185l43-75 43 75"/></g><g id="ac"><use xlink:href="#ab" transform="rotate(45)"/><use xlink:href="#ab" transform="rotate(90)"/><use xlink:href="#ab" transform="rotate(135)"/></g><use xlink:href="#ac" transform="scale(-1 1)"/><path fill="none" stroke="#069" stroke-width="84" d="M-181.02-181.02a256 256 0 1 0 362.04 0c-70.71-70.71-177.49-34.65-198.7-190.21"/><path d="M-23-515s-36 135-80 185 116-62 170-5-90-180-90-180z"/></g></svg><svg width="42" height="42" viewBox="-1 -1 653 435" id="MediaWiki-logo_sister" y="47" xmlns="http://www.w3.org/2000/svg"><g fill="none" fill-rule="evenodd"><path fill="#006697" d="M.29 379.65V77.15h68.57v12.57c-37.44 3.15-38.92 5.6-38.92 32.84v212.37c0 26.9.74 29 38.92 32.14v12.57H.29zm108.94 0V77.15h68.57v12.57c-37.44 3.15-38.92 5.6-38.92 32.84v212.37c0 26.9.74 29 38.92 32.14v12.57h-68.58zm362.67 0v-12.58c37.07-3.14 38.92-5.24 38.92-32.48V122.2c0-27.25-1.85-29.34-38.92-32.49V77.15h68.58v302.5H471.9zm109.58 0v-12.58c37.06-3.14 38.92-5.24 38.92-32.48V122.2c0-27.25-1.85-29.34-38.92-32.49V77.15h68.57v302.5h-68.57z"/><path fill="#ffc200" d="M126.15 263.4c-4.66 15.82 11.19 28.89 24.93 30.46-5.14 5.35-12.87 5.04-18.95 8.61 10.12 23.79 40.17 29.04 62.26 22.09-18.86 17-34.88 38.83-39 64.1 1.05 1.41 4.7.84 6.77 1.23 22.8.21 44.3-10.73 61.55-25.24 6.97 17.2-12.72 25.24-26.28 27.27 15.18 21.4 43.55 7.62 53.68-11.57-1.88 13.87-3.7 27.8-6.85 41.45 24.15.08 45.25-16.11 53.02-38.9v-.09c3.54 13.39 1.5 28.13-4.42 40.32 8.39 5.96 26.77 1.87 33.04-5.54 6.81-8.05 12.1-19.42 15.7-29.24 6.84 13.9 14.78 28.2 15.88 43.83 26-4.8 33.47-35.33 31.88-57.3 13.82 20.67 33.22 40.23 57.6 46.83 7.86-25.91-3.08-54.48-18.63-75.63 8.57.5 19.67-.15 26.17 6.87 5.68 6.14 5.79 16.05 6.96 23.84 25.37-13.21 10.78-45.19-7.52-57.69 13.84 4.48 28.1 8.3 41.67 13.3 2.4-19.22-6.7-40.45-22.6-51.98 10.75 1.3 23.1 8.14 30.71 15.88 9.96-8.3 1.47-32.62-2.2-37.98-4.08-5.93-11.36-13.45-18.65-19.24 15.58-2.63 30.42-7.56 46.48-4-.57-21.19-12.43-31.08-26.47-38.79-7.42-1.88-13.88-5.13-21.55-6.15 22.8-9.07 49.36-21.1 60.94-44.32-23.93-11.64-52.8-11.43-77.65-1.4 3.25-26.18 19.87-22.72 37.1-21.25-7.81-23.4-36.63-21.44-52.7-10.29 7.4-10.12 12.62-26.15 21.54-34.47-22.69-7.84-50.05-1.22-66.06 18.38 2.81-14.7 9.24-30.85 21.36-40.54-18.05-19.05-45.36-1.16-58.72 14.77-.28-15.73-3.4-32.04 1.67-47.21-27.77-3.55-43.81 19.17-49.7 42.3C313.94 42.1 301.64 16.28 282.2.24c-15.12 20.46-18.07 47.27-12.92 71.4-19.31-2.72-15.18-23.62-11.27-36.7-26.28 3.46-27.3 34.34-16.44 52.71-10.76-8.68-21.8-17.58-32.48-26.28-4.93 10.35-8.24 21.44-7.53 33.06-4.16-2.68-4.64-9.16-8-12.18-22.98 12.43-14.53 42.58-3.08 60.19-15.28-3.83-31.48-6.6-44.8-15.82-11.44 22.14 6.2 49.71 26 61.21-26.9-3-50.58 1.75-74.45 14.01 7.61 12.29 24.85 24.94 38.61 31.08-4.6 2.09-20.06-4.5-24.83-2.83.66 1.25 23.45 35.67 52.4 33-8 14.28-28.73 9.76-37.25.31"/><g stroke-width="3"><path stroke="#fff" d="M267.17 68.17c6.13 24.38 20.52 57 37.5 76.08m12.66-2.67c-2.42-20.66-3.4-57.7 2-79.92m-151 125.25c18.74 10.3 51.36 19.41 71.67 24.67m-1.33 12c-36.5 18.17-89.17 12.84-99.34 10.5m14.5 30.58c24.53.6 62.31-10.05 86.17-13.41m-99.25 42.83c31.3 3.42 76.97-15.96 106.25-23.83m-25.58 98.58c17.42-17.62 37.21-49.51 45.91-72.91m-18.75 91.16c4.62-23.65 20.07-60.25 37.75-78.16m10.42 79.16c6.35-20.05 14.87-49.2 18.58-69.83m26.17 74c6.8-21.58 8.42-53.78 5.17-76.33m45 65c-3.23-20.68-17.27-53-26-72M432 348.25c-12.47-16.45-35.23-36.49-53-47m80.83 21c-19.36-7.18-48.6-23.02-62.5-39.34m81 0c-19.1-12.3-46.19-23.34-67-32.33m2.6-36.74c24.32 3.14 51.05 13.22 72.07 25.95m-75.77-43.19c23.21-4.95 53.29-9.18 77.14-6.8m-82.68-4.28c16.21-18.96 37.94-33.7 60.94-42.86m-13.25-32.25c-14.35 22.68-40.25 46.9-66.05 56.5m19.98-74.43c-15.1 16.35-30.48 36.65-44.1 54.26M238.06 83.3c18.46 15.43 41.63 43.1 47.94 66.96M200.06 90.6c8.99 10.88 24.23 20.9 34.84 29.74 12.45 10.37 19.66 35.5 24.77 50.24M187 139.54c12.5 18.93 38.84 43.54 58.33 54.7M368.93 67.1c-15.58 19.43-27.23 51.38-33.93 75.15m-149.33 186c20.73-8.07 55.64-26.37 73.33-40.34"/><path stroke="#006697" d="M139.33 234.08c-5.16 0-7.16-2.17-10-2.67"/></g><circle fill="#8e7650" stroke="#fff" stroke-width="3" cx="325.5" cy="229.58" r="88.33"/></g></svg><svg width="37" height="37" viewBox="-1 -1 902 902" id="Meta-Wiki-logo_sister" y="89" xmlns="http://www.w3.org/2000/svg"><path fill="#396" d="M316.6 181.29a298.24 298.24 0 0 0-84.9 62.92c11.84.23 23.75-.3 35.67-1.64a323.85 323.85 0 0 1 49.24-61.28zm28.16-12.21c25.37-1.2 50.57.53 75.13 5.15a272.66 272.66 0 0 0 23.77-24.2 298.19 298.19 0 0 0-98.9 19.05zm-15.58 27.53a303.35 303.35 0 0 0-35.33 41.7 275.41 275.41 0 0 0 47.07-14.63l-11.74-27.07zm18.37-7.9l11.62 26.78a274.21 274.21 0 0 0 40.07-24.47 303.55 303.55 0 0 0-51.69-2.31zm121.5-38.12a293.5 293.5 0 0 1-25.66 28.98 323.06 323.06 0 0 1 123.72 63.92 428.64 428.64 0 0 0 36.36-51.27 301.65 301.65 0 0 0-134.42-41.63zM215.02 263.43a301.51 301.51 0 0 0-59.17 127.59 428.48 428.48 0 0 0 63.1 7.44 322.99 322.99 0 0 1 36.4-134.74c-13.5.84-26.99.72-40.33-.29zm210.67-67.8a292.48 292.48 0 0 1-58.6 38.15l53.6 123.56a426.74 426.74 0 0 0 133.39-98.8 302.91 302.91 0 0 0-128.4-62.92zM279.2 261.2a302.59 302.59 0 0 0-40.38 137.63 427.1 427.1 0 0 0 163.6-33.37l-53.54-123.45a293.53 293.53 0 0 1-69.68 19.2zm341.09-58.16a449.08 449.08 0 0 1-38.22 53.7 316.67 316.67 0 0 1 72.95 104.27c3.64 8.38 6.9 16.83 9.76 25.33a594.5 594.5 0 0 0 55.62-66.22 298.09 298.09 0 0 0-100.11-117.08zM152.54 410.7a298.22 298.22 0 0 0 19.74 152.77 594.92 594.92 0 0 0 86.35 3.21 320.18 320.18 0 0 1-13.7-27.78 316.71 316.71 0 0 1-26.21-120.45 449 449 0 0 1-66.18-7.75zm416.42-138.93a446.17 446.17 0 0 1-140.3 103.9l59 136.01a594.5 594.5 0 0 0 161.17-109.5 301.16 301.16 0 0 0-12.16-33.2 297.63 297.63 0 0 0-67.71-97.22zm-330.42 147c.83 37.6 8.83 75.62 24.69 112.2a300.99 300.99 0 0 0 17.69 34.49 595.37 595.37 0 0 0 188.46-45.64l-59-136.01a446.54 446.54 0 0 1-171.84 34.96zm490.98-77.6a614.4 614.4 0 0 1-58.28 66.97 317.6 317.6 0 0 1-.26 159.46 736.59 736.59 0 0 0 73.57-60.8 298.32 298.32 0 0 0-15.03-165.64zM181.8 584.47A298.36 298.36 0 0 0 294.65 706.6a736.2 736.2 0 0 0 92.83-13.43 317.8 317.8 0 0 1-117.15-107.03 614.17 614.17 0 0 1-88.53-1.66zm472.75-160.3A614.14 614.14 0 0 1 495.64 530.1l48.33 111.4a745.12 745.12 0 0 0 100.95-55.77c0-.03.02-.06.03-.08a298.92 298.92 0 0 0 9.6-161.47zM293.27 584.5a299.18 299.18 0 0 0 124.77 101.55 746.6 746.6 0 0 0 107.63-36.47l-48.33-111.4a615.16 615.16 0 0 1-184.07 46.32zm442.24-42.63a756.35 756.35 0 0 1-74.23 56.92 324.85 324.85 0 0 1-78.13 120.01c75.09-37.13 128.26-102.14 152.36-176.93zm-408.99 181.5c70.12 31.63 152.1 36.35 228.88 7.47a324.65 324.65 0 0 1-138.66-23.92 756.8 756.8 0 0 1-90.22 16.44zm305.27-105.72a766.28 766.28 0 0 1-79.84 42.26l18.8 43.35a303.92 303.92 0 0 0 61.04-85.6zm-181.73 80.33a303.93 303.93 0 0 0 102.37 13.3l-18.8-43.35a767.77 767.77 0 0 1-83.57 30.05z"/><path fill="#900" d="M450 0C296.44 0 160.78 77.05 79.56 194.56l87 50.25C230.2 157.11 333.44 100 450 100s219.81 57.1 283.44 144.81l87-50.25C739.22 77.05 603.56 0 450 0z"/><path fill="#069" d="M32.19 282.75A448.33 448.33 0 0 0 0 450c0 231.5 175.1 422.36 400 447.25V796.37C230.47 772.08 100 626.23 100 450a349 349 0 0 1 19.94-116.63l-87.75-50.62zm835.62 0l-87.75 50.63A349.08 349.08 0 0 1 800 450c0 176.22-130.47 322.08-300 346.38v100.87C724.9 872.35 900 681.5 900 450c0-59.1-11.45-115.53-32.19-167.25z"/></svg><svg width="37" height="37" viewBox="-1 -1 302 302" id="Wikibooks-logo_sister" y="126" xmlns="http://www.w3.org/2000/svg"><path fill="#fdfcf8" fill-rule="evenodd" d="M141.66 103.54c5.27 66.02 16.8 129.94 51.2 191.49l13 .1 82.3-73.42-78.44-198.2-56.54 54-11.52 26.03z"/><path fill="#f4eed7" fill-rule="evenodd" d="M75.84 103.6c5.28 66.03 18.78 130.8 53.18 192.34l20.34.18 61.96-77.72-67.41-194.83-56.54 54.01-11.53 26.03z"/><path fill="#e9ddaf" fill-rule="evenodd" d="M.22 102.2c5.38 69.28 27.01 131.33 52.46 191.7l26.8-.33 70.4-80.04-81.6-191.37-56.54 54.01L.22 102.19z"/><path fill="#5f96d3" d="M213.33 4.06c-27.19 26.3-54.07 52.38-54.07 52.38l9.66 19.65c13.1-12.98 26.26-24.4 38.81-37.09 26.44 58.04 44.45 104.81 66.6 166.65 7.26 20.08 5.78 20.98-11.56 31.84-27.86 13.85-36.67 22.94-69.87 58.26h22.72c27.75-25.1 38.05-33.95 72.8-52.26 12.3-7.1 13.99-16.06 8.94-30-16.26-45.2-51.49-142.6-84.03-209.43z"/><path fill="#2a62a1" fill-rule="evenodd" d="M142.45 4.69C122.57 18.1 107.22 37.43 89.92 54l7.1 22.63c13.54-10.67 25.32-23.54 37.5-35.72l65.65 164.69c3.79 11.15-2.17 21.07-14.15 31.87-14.35 11.53-43.9 38.42-57.29 58.9h20.38c21.38-21.96 25.24-24.94 49.6-46.03 16.34-16.68 31.1-25.22 23.4-46.6L142.45 4.7z"/><path fill="#15304f" fill-rule="evenodd" d="M75.33 3.63c-5.3 1.78-9.71 5.2-13.85 8.8C5.4 66.42 3.14 68.7 3.14 68.7.19 71.43-.06 75.44-.02 79.47l.24 22.72s25.9-25.18 64.57-62.4C85.61 94.01 107.34 147.96 128.73 202c2.93 8.16-4.08 14.85-12.96 23.78-12.28 11.97-37.95 36.62-64.22 69.53h26.34l63.31-69.43c6.02-8.28 13.5-16.37 10.35-23.88L75.33 3.62z"/></svg><svg width="49" height="49" viewBox="-1 -1 1052 592" id="Wikidata-logo_sister" y="163" xmlns="http://www.w3.org/2000/svg"><path fill="#900" d="M120 545h30V45h-30v500zm60 0h90V45h-90v500zM300 45v500h90V45h-90z"/><path fill="#396" d="M840 545h30V45h-30v500zm60-500v500h30V45h-30zM420 545h30V45h-30v500zm60-500v500h30V45h-30z"/><path fill="#069" d="M540 545h90V45h-90v500zm120 0h30V45h-30v500zm60-500v500h90V45h-90z"/></svg><svg width="42" height="42" viewBox="-1 -1 1026 1026" id="Wikimedia-logo_black" y="212" xmlns="http://www.w3.org/2000/svg"><clipPath id="fa"><path d="M0-33l471 471v363h82V438l471-471v1057H0"/></clipPath><g clip-path="url(#fa)"><path d="M511 224a288 288 0 1 0 2 0"/><path fill="none" stroke="#000" stroke-width="116" d="M511 102a410 410 0 1 0 2 0"/></g><path d="M511 28a158 158 0 1 0 2 0z"/></svg><svg width="176" height="32" viewBox="-1 -1 502 87" id="Wikipedia_wordmark" y="254" xmlns="http://www.w3.org/2000/svg"><path d="M55.27 22.07L53.3 18.1c-3.33-6.62-3.26-6.97-6.63-7.4-.94-.14-1.43-.26-1.43-.72v-2.1l.28-.2h19.65l.52.16v2.1c0 .46-.35.7-1.04.7l-1.43.2c-3.6.3-3 1.76-.62 6.53l22.72 46.46.78.2 20.16-47.83c.7-1.93.6-3.3-.3-4.1-.9-.8-1.55-1.25-3.9-1.35l-1.88-.1c-.23 0-.45-.08-.66-.23a.72.72 0 0 1-.32-.58v-2l.3-.2h22.77l.23.2v2c0 .54-.3.8-.92.8-2.98.14-5.2.8-6.63 1.94a11.43 11.43 0 0 0-3.36 4.86s-18.55 42.43-24.9 56.54c-2.42 4.62-4.8 4.2-6.9-.14C75.35 64.7 62.86 37 62.86 37l-7.6-14.93z"/><path d="M91.66 7.65s-12.8-.04-18.52 0l-.28.2v2c0 .23.1.42.3.57.22.16.44.24.67.24l.92.1c2.33.1 3.4.7 3.72 1.1.56.67.83 1.4-.52 4.34L54.03 63.9l-.62-.15s-17.13-36.13-22.1-48.2a8.59 8.59 0 0 1-.73-2.76c0-1.24 1.1-1.9 3.32-2l2.57-.1c.7 0 1.04-.27 1.04-.82V7.9l-.23-.2s-20.52-.03-24.76 0l-.22.2v2.08c0 .38.48.6 1.43.72 2.62.14 4.33.55 5.15 1.24.82.7 1.7 2.47 2.84 5.23 6.22 14.96 19.45 41.65 25.9 56.86 1.85 4.15 4.2 4.8 7.02-.13 4.9-9.1 18.2-36.87 18.2-36.87l10.47-19.6c1.2-2.05 2.4-3.9 2.98-4.76 1.1-1.57 1.7-1.87 4.7-2 .6 0 .9-.28.9-.83V7.86l-.22-.2zm38.94 61.93c0 2.3 1.05 3.64 4.38 3.95l2.2.2c.3 0 .6.22.6.63v2.2l-.1.2s-7.9-.2-11.12-.2c-2.9 0-11.03.2-11.03.2l-.2-.2v-2.2c0-.4.3-.62.72-.62l2.08-.2c3.44-.32 4.48-1.98 4.48-3.96V34.95c0-2.3-1.25-2.92-4.47-3.22l-2.08-.22c-.4 0-.72-.08-.72-.4v-2.4l.1-.2s8.22.2 11.44.2a726 726 0 0 0 10.82-.2l.1.2V31c0 .3-.22.5-.63.5l-2.2.22c-3.2.3-4.36 1.14-4.36 3.23v34.63zm30.7 0c0 2.3 1.36 3.43 4.37 3.95l1.15.2c.3.1.62.22.62.63v2.2l-.1.2s-6.55-.2-9.67-.2c-2.92 0-11.44.2-11.44.2l-.2-.2v-2.2c0-.4.3-.62.72-.62l2.08-.2c3.12-.32 4.47-1.98 4.47-3.96V34.95c0-2.3-1.15-2.92-4.47-3.22l-2.08-.22c-.42 0-.73-.08-.73-.4v-2.4l.1-.2s8.53.2 11.75.2c2.92 0 9.47-.2 9.47-.2l.1.2V31c0 .3-.2.4-.62.5l-1.15.22c-3.22.62-4.36 1.14-4.36 3.23v15.7c3.44 0 5.4-1.76 10-6.65 4.15-4.58 7.37-8.42 7.37-10.4 0-.84-.93-1.77-3-2.1-.43-.1-.64-.2-.64-.5v-2.4l.1-.1s8.43.2 11.45.2c2.7 0 7.28-.2 7.28-.2l.3.1V31c0 .3-.3.5-.82.5-4.06.32-6.87.53-10.6 4.8l-8.95 10.3c-1.78 1.86-2.4 3-2.4 3.84 0 .62.4 1.14.93 1.76l15.7 18.93c1.25 1.45 3.75 2.08 5.83 2.5l.52.1c.3.1.73.3.73.62v2.18l-.3.1s-5.52-.1-8.43-.1c-2.6 0-6.34.1-6.34.1l-.1-.1v-1.25c0-1.35-.1-2.5-1.57-4.15l-11.54-14.36c-1.56-2.08-3.23-2.6-5.5-2.6v15.4zm56.07 0c0 2.3 1.04 3.64 4.37 3.95l2.2.2c.3 0 .6.22.6.63v2.2l-.1.2s-7.9-.2-11.12-.2c-2.9 0-11.03.2-11.03.2l-.2-.2v-2.2c0-.4.3-.62.7-.62l2.1-.2c3.43-.32 4.47-1.98 4.47-3.96V34.95c0-2.3-1.25-2.92-4.48-3.22l-2.1-.22c-.4 0-.7-.08-.7-.4v-2.4l.1-.2s8.2.2 11.43.2a726 726 0 0 0 10.82-.2l.1.2V31c0 .3-.2.5-.62.5l-2.2.22c-3.2.3-4.36 1.14-4.36 3.23v34.63zm22.48-34.43c0-3.22-1.36-3.33-6.24-3.64-.62 0-.72-.3-.72-.5v-2.4l.2-.1c1.57 0 7.7.2 10.72.2 2.9 0 7.07-.2 10.92-.2 14.76 0 17.46 7.27 17.46 12.7 0 6.23-3 16-17.77 16-2.6 0-4.67-.2-6.55-1.04V70.1c0 2.28 1.25 2.8 4.58 3.32l2.08.3c.43.12.74.22.74.64v2.18l-.1.2s-8.32-.2-11.54-.2c-2.9 0-10.7.2-10.7.2l-.12-.2v-2.18c0-.42.2-.52.63-.63l2.2-.3c3.2-.43 4.25-1.36 4.25-3.34V35.14zm8 18.1c2.08.84 4.68.94 6.76.94 6.26 0 9.26-3.76 9.26-11.76 0-8.95-4.05-10.92-9.77-10.92-5 0-6.25.93-6.25 3.64v18.1zm42.25 23.3c-3.13 0-10.3.2-10.3.2l-.1-.2v-2.3c0-.2.1-.5.62-.5l2.4-.22c3.22-.3 4.16-2.4 4.16-4.47V34.74c0-2.4-1.25-2.8-4.17-3l-2.38-.23c-.63-.08-.63-.3-.63-.4v-2.4l.1-.2s8.1.2 11.23.2h15.3c3.1 0 10.5-.2 10.5-.2l.2.2c.1 4.47.84 8.54 1.57 12.48l-2.6.42c-1.14-3.85-3.1-9.36-9.77-9.36h-8.32c-1.97 0-3 .73-3 2.5V49.8h7.8c2.9 0 3.63-1.25 4.05-3.33l.62-2.2c0-.3.2-.52.62-.52h1.76c.2 0 .2.1.2.3-.2 2.3-.6 5.22-.6 7.7 0 2.6.4 4.8.6 7.2l-.2.2H308c-.52 0-.74-.2-.74-.52l-.52-2.3c-.4-2.07-1.35-3.22-4.06-3.22h-7.8v15.92c0 1.97 1.14 3.95 3.02 3.95h9.88c5.3 0 8.22-3.32 9.47-8.73l2.6.3-2.1 11.97-.2.2s-6.14-.2-9.26-.2h-18.2zm39.1-2.81l2.4-.2c3.12-.32 4.16-1.26 4.16-4.48V34.74c0-2.7-.73-2.7-4.16-3l-2.28-.23c-.42 0-.74-.2-.74-.5v-2.3l.1-.2s9.16.2 11.03.2c1.98 0 11.04-.2 13.74-.2 17.37 0 25.9 10.8 25.9 24.64 0 18.2-12.9 23.6-24.44 23.6-8.32 0-11.95-.2-15.18-.2-3.12 0-11.03.2-11.03.2l-.1-.2v-2.18c-.02-.3.2-.62.6-.62zm23.2 0c11.44 0 17.9-4.26 17.9-18.82 0-10.82-2.4-23.4-19.87-23.4-4.06 0-6.66.62-6.66 3.22v34.32c0 2.9.72 4.68 8.63 4.68zm51.5-4.16c0 2.3 1.03 3.64 4.36 3.95l2.2.2c.3 0 .6.22.6.63v2.2l-.1.2s-7.9-.2-11.12-.2c-2.9 0-11.02.2-11.02.2l-.2-.2v-2.2c0-.4.3-.62.7-.62l2.1-.2c3.43-.32 4.47-1.98 4.47-3.96V34.95c0-2.3-1.26-2.92-4.48-3.22l-2.1-.22c-.4 0-.7-.08-.7-.4v-2.4l.1-.2s8.2.2 11.42.2a726 726 0 0 0 10.82-.2l.1.2V31c0 .3-.2.5-.62.5l-2.2.22c-3.2.3-4.35 1.14-4.35 3.23v34.63zm32.03 3.95l3.02.2c.42 0 .83.33.83.84v1.98l-.2.2s-11.34-.2-13.84-.2c-2.7 0-9.36.2-9.36.2l-.2-.2v-1.98c0-.5.3-.83.82-.83 4.58-.3 7.17-1.14 10.1-7.8l23.07-54.08c1.14-2.7 1.98-3.75 3.54-3.75 1.46 0 2 1.05 2.8 3.13l21.33 56.37c1.46 4.06 3.54 5.62 7.7 6.03l1.15.1c.52 0 1.04.3 1.04.84v1.97l-.3.2s-8.02-.2-12.08-.2c-3.64 0-13.83.2-13.83.2l-.1-.2v-1.97c0-.53.2-.84.74-.84l2.9-.2c3.96-.3 5.43-1.57 4.38-4.48l-6.34-17.58h-21.63c-2.5 0-3.12.42-3.64 1.77l-6.03 15.08c-1.04 2.6.32 4.9 4.16 5.2zM461.4 47.1l-10.07-27.76h-.2l-10.4 26.42c-.43 1.04.3 1.35 2.58 1.35h18.1z"/></svg><svg width="42" height="42" viewBox="-65.5 -178.5 302 357" id="Wikiquote-logo_sister" y="286" xmlns="http://www.w3.org/2000/svg"><defs><radialGradient id="ha" gradientUnits="userSpaceOnUse" r="59.1" cx="0" cy="0"><stop offset="0%" stop-color="#00003b"/><stop offset="100%" stop-color="#002f64"/></radialGradient><clipPath id="hb"><path d="M-25 0l300 300L575 0 275-300z"/></clipPath></defs><circle r="59.1" fill="url(#ha)"/><g clip-path="url(#hb)" fill="none"><circle r="101" stroke="#003b6f" stroke-width="29"/><circle r="156.5" stroke="#3b6fa0" stroke-width="30.4"/><circle r="215.7" stroke="#6fa0d0" stroke-width="31.4"/></g></svg><svg width="39" height="39" viewBox="-1 -1 412 432" id="Wikisource-logo_sister" y="328" xmlns="http://www.w3.org/2000/svg"><g fill-rule="evenodd"><path fill="#608ab4" d="M203.7 0C135.42.46 75 35.98 38.06 90.23h333.88C334.76 35.63 273.84 0 205.02 0h-1.32z"/><path fill="#375493" d="M26.2 109.84A221.99 221.99 0 0 0 0 214.99C0 333.67 91.86 430 205.02 430S410 333.67 410 214.99c0-38.2-9.5-74.05-26.18-105.15H26.21z"/><path fill="#d6dde3" d="M38.06 90.23a216.89 216.89 0 0 0-11.85 19.6h357.61a217.18 217.18 0 0 0-11.88-19.6H38.06z"/><path fill="#7bbce5" d="M292.56 24.1c-.85.02-1.76.21-2.73.5-9.13 14.58-9.1 62.88-8.98 73.33h.06c13.52 3 31.42-.45 32.02-13.39 1.03-17.05 2.06-33.58-6.98-44.2-8.26 3.76-6.7-11.5-10.05-14.92-.84-.96-2-1.34-3.33-1.31z"/><path fill="#fff" d="M289.83 24.6c-4.81 1.48-10.68 5.85-13.57 7.26-2.52.27-7.2.08-10.69.97-7.5 1.93-14.32 6.5-18.26 13.7-5.08-14.77-16 3.39-28.94 13.85-7.17-5.4-21.6-16.17-34.85-23.1-10.65 5.39-21.8 23.62-28.44 25.16-6.89 1.29-16.6.53-20.64 5.4-6.72 6.95-8.8 14.9-10.09 22.36 15.76 5.57 32.29 5.74 48.05 3.6 8.95-2.14 15.33.87 24.54.53 27.97 1.2 58.26-2.21 83.9 3.6-.11-10.45-.14-58.75 9-73.32z"/><path fill="#7bbce5" d="M196.43 53.7c3.36 10.12 6.28 20.23 5.16 30.34-1.2 6.25 1.47 5.82 6.46 3.34 4.91-2.66 7.5-5.57 14.73-7.97 5.6-1.54 1.63-5.65-1.04-8.48-7.98-7.56-16.66-12.33-25.31-17.22z"/><path fill="#294584" d="M225.13 109.84c5.88 77.83 58.43 87.4 91.5 71.66-16.53-16.27-10.53-49.44 7.1-49.8 32.64-.8 23.35 59.85 23.36 89.29 17.84-3.61 16.67-70.78 12.88-111.15H225.13z"/><path fill="#e0e9ea" d="M56.13 109.84l1.91 20.1c4.32 7.87 7.53 15.71 6.63 23.58 8.53-2.1 13.61-3.19 18.2 5.5 20.06 12.43 39.12 13.9 57.88 12.07 3.82 45.16 2.7 81.49 1.1 135.47 11.4 18.84 22.8 36.7 34.2 55.53 6.53 11.45 18.01 15.07 27.02 1.53l23.13-10.4v11.5c11.85 2.97 23.57 7.48 18.2 19.76-4.1 7.93-1.8 11.46 9.86 6.16 10.3-5 16.65 2.75 22.03 4.12-7.66-8.12-1.07-24.1-.83-40.6 11-1 23.55-10.92 34.55-11.92 22.6-21.83 26.5-29.96 26.46-58.16 2.27-7.31 5.53-9.24 3.86-21.94 1.3-7.87 3.09-18.15 4.37-26.02l2.58-15.16-.2.03c0-29.44 9.3-90.08-23.34-89.3-17.64.37-23.64 33.54-7.1 49.81a66.45 66.45 0 0 1-12.2 4.41c1.35 7.68-4.23 15.55-11.53 15.88-7.28-.64-18 6.55-24.79 23.05-10.86 22.78-20.74 2.96-24.7-3.16-5.09-6.72 1.16-12.97-12.79-8.91-9.2 2.83-20.87 4.7-23.66-9.13-11.76-11.89-23.03-22.32-34.79-34.2-4.7-5.57-.79-10.14-.75-12.1v-.2l-.04-.09a1.01 1.01 0 0 0-.09-.22l-.03-.06-.03-.03a2.76 2.76 0 0 0-.1-.1l-.12-.09-.07-.03c-.05-.03-.12-.04-.18-.06-4.59-2.88-10.15.59-16.22 3.1-15.83 2.89-22.01.1-23.72-8.23.09-13.76-7.69-12.32-20.4-10.41-36.63 5.2-42.55-7.7-53.23-31.08h-1.07z"/><path fill="#4d8ac0" d="M57.2 109.84c10.67 23.37 16.6 36.27 53.23 31.08 12.7-1.92 20.48-3.35 20.4 10.4 1.7 8.34 7.89 11.12 23.72 8.23 6.06-2.5 11.62-5.97 16.21-3.1l.2.07.05.03.13.1.1.09.02.03.04.06a1.01 1.01 0 0 1 .1.22l.02.1v.18c-.03 1.96-3.94 6.54.76 12.1 11.76 11.89 23.02 22.32 34.79 34.2 2.8 13.84 14.46 11.97 23.66 9.14 13.95-4.06 7.7 2.19 12.79 8.9 3.96 6.13 13.84 25.95 24.7 3.17 6.8-16.5 17.5-23.7 24.8-23.05 7.3-.33 12.87-8.2 11.53-15.88-32.45 8.21-74.12-7.26-79.32-76.07H57.2z"/><path fill="#d6dde3" d="M166.93 199.26c-10.56.68-5.05 35.8-3.9 52.43 1.57 16.37 5.23 12.52 16.72 5.38 5.28 10.66 2.07 16.61-5.4 23.51-5.57 5.23-8.76 13.05-3.93 22.04 1.47 2.45 2.71 3.5 4.43 7.35 1.15 2.29 2.27 4.6 3.42 6.88 1.33 5.06-.17 8.2-2.39 10.91-2.05 2.93-2.45 5.88.22 13.98 1.46 4.7-2.53 10.32 3.65 15.26a37.25 37.25 0 0 0 8.17 4.87c-2.38-6.9-2.45-16.86-1.29-25.42.79-8.07 1.34-13.08 8.74-18.57 6.46-3.29 4.66-20.67 5.21-31.01l.22.15v-.15c13.82-2.9 6.13-13.9 1.89-24.45l-33.78-62.9a6.14 6.14 0 0 0-1.86-.26h-.12z"/><path fill="#608ab4" d="M168.91 199.5l33.78 62.92c4.24 10.55 11.93 21.54-1.89 24.45 1.23 7.36 10.4 13.77 20.56 12.9 10.57-.67 18.26 7.2 21.74 15.14.46-8.76 1.54-17.45 3.68-26.04 1.36-4.25 9.1-8.01 2.67-13.67-26.04-28.53-51.15-50.95-79.32-75.25a9.41 9.41 0 0 0-1.22-.44z"/><path fill="#236798" d="M200.59 286.87c-.55 10.34 1.24 27.72-5.22 31.01-7.4 5.49-7.95 10.5-8.74 18.57-1.16 8.57-1.1 18.55 1.3 25.45a33.26 33.26 0 0 0 7.6 2.2c4.47.4 7.28 1.5 16.71-.23 8.26-.94 13.22-4.96 22.66-6.37 5.15-1.01 8.64-2.97 8.36-10.8-.4-10.68-.7-21.28-.16-31.79-3.48-7.94-11.17-15.8-21.74-15.13-10.05.85-19.12-5.4-20.52-12.66v-.06c-.08-.07-.18-.12-.25-.2z"/><path fill="#608ab4" d="M339.42 276.45c-.87 2.4-2 4.53-2.95 7.63.04 28.2-3.86 36.33-26.46 58.16-.2.05-6.67 15.13-12.16 19.07-9.27 6.81-8.7 13-12.13 20.45-2.5 3.76-5.94 4.37-8.43 3.69-1.55-1.23-3.12-1.8-4.68-3.66-.1 3.04.12 5.82.91 8.25l.1.22v.03c.43.88.84 1.78 1.25 2.66l.07.1v.02c.37.58.8 1.14 1.28 1.66l-.44-.12c9.5 15.1 22.9 19.82 40.1 13.88a90.72 90.72 0 0 0 20.43-12.04c5-4.72 10.95-13.58 1.57-14.16-1.34-.35-2.08-.7-2.45-1.07l-.06-.06c-.04-.04-.07-.11-.1-.16a1.08 1.08 0 0 1-.1-.21l-.02-.07v-.18c.02-1.35 2.59-3.27.62-7.16-1.34-5.96 4.37-11.6 8.46-13.1l-8.46-18.36c.2-4.01 8.14-6.13 6.85-13.63 2.3-18.85 5.4-46.84-3.2-51.84z"/><path fill="#236798" d="M288.7 202.2c-6.8 1.82-15.01 9.1-20.58 22.63-2.55 5.34-5.05 8.34-7.42 9.73.24 23.26 5.8 39.82 17.28 48.9-3.4 13.45-6.8 32-.62 43.24-10.44-3.29-6.19 17.6-9.27 26.39-5.22 14.62-9.81 13.98-14.71 15.25 4.47 5.09 10.23 10.49 18.85 13.67v.06a1 1 0 0 0 .13.25c.64.97 3.53 2.03 4.93 3.13 2.5.68 5.93.07 8.42-3.7 3.45-7.44 2.87-13.62 12.13-20.44 5.37-3.85 11.68-18.35 12.16-19.07-18.33-10.26-27-29.8-24.04-48.62.86-5.2 4.27-11.02-.3-19.39-5.49-23-2-49.77 3.04-72.04z"/></g></svg><svg height="42" width="42" viewBox="-1 -1 943 1105" id="Wikispecies-logo_sister" y="367" xmlns="http://www.w3.org/2000/svg"><defs><radialGradient id="jj" gradientUnits="userSpaceOnUse" cx="510" r="210" cy="110"><stop stop-color="#d8aba5" offset=".04"/><stop stop-color="#ad604e" offset=".4"/><stop stop-color="#9c4029" offset=".6"/><stop stop-color="#92331f" offset=".7"/><stop stop-color="#43180f" offset="1"/></radialGradient><radialGradient id="ji" gradientUnits="userSpaceOnUse" cx="470.5" r="430" cy="650"><stop stop-color="#4f8fb3" offset=".8"/><stop stop-color="#0c5178" offset=".95"/><stop stop-color="#002d4a" offset="1"/></radialGradient><clipPath id="jh"><path d="M0 199l470.5 428L941 199v904H0z"/></clipPath><linearGradient id="ja"><stop stop-color="#00090e" offset="0"/><stop stop-color="#082e45" offset=".1"/><stop stop-color="#0a6997" offset=".5"/><stop stop-color="#082e45" offset=".9"/><stop stop-color="#00090e" offset="1"/></linearGradient><linearGradient id="jg"><stop stop-color="#375d72" offset="0"/><stop stop-color="#407b9b" offset=".1"/><stop stop-color="#a0c0cf" offset=".5"/><stop stop-color="#407b9b" offset=".9"/><stop stop-color="#375d72" offset="1"/></linearGradient><linearGradient id="jc"><stop stop-color="#0f3119" offset="0"/><stop stop-color="#01703b" offset=".1"/><stop stop-color="#89c4ae" offset=".5"/><stop stop-color="#01703b" offset=".9"/><stop stop-color="#0f3119" offset="1"/></linearGradient><linearGradient id="je"><stop stop-color="#476c5a" offset="0"/><stop stop-color="#52a27d" offset=".1"/><stop stop-color="#a7d2be" offset=".5"/><stop stop-color="#52a27d" offset=".9"/><stop stop-color="#476c5a" offset="1"/></linearGradient></defs><g stroke-width="0"><g fill="url(#ja)"><path id="jf" d="M213 218c39 137 436 101 436 202v90c0-111-404.5-64.7-436-200"/></g><g fill="url(#ja)"><path id="jd" d="M649 800c0-94.5-411-72.4-411-192v90c0 112.5 411 89.5 411 192"/></g><use xlink:href="#jb" transform="matrix(-1 0 0 1 941 0)" fill="url(#jc)"/><use xlink:href="#jd" transform="matrix(-1 0 0 1 941 0)" fill="url(#je)"/><use xlink:href="#jf" transform="matrix(-1 0 0 1 941 0)" fill="url(#je)"/><g fill="url(#jg)"><path id="jb" d="M649 420c0 99.7-411 81-411 188v90c0-103.7 411-91.8 411-188"/></g></g><circle stroke-width="100" clip-path="url(#jh)" stroke="url(#ji)" cy="628" cx="470.5" r="388.5" fill="none"/><circle stroke="#555" cy="161" cx="470.5" r="125" fill="url(#jj)"/></svg><svg width="43" height="37" viewBox="-1 -1 43 37" id="Wikiversity-logo_sister" y="409" xmlns="http://www.w3.org/2000/svg"><path fill="#006499" d="M20.36.06c-.47.08-.97.42-1.45 1.07-.4.55-.8 1.3-1.14 2.23h5.16a9.37 9.37 0 0 0-1.15-2.25c-.48-.63-.97-.97-1.4-1.04zm1.6.14c.14.15.28.3.4.47.5.7.96 1.6 1.35 2.7h3.6A9.81 9.81 0 0 0 21.96.2zm-3.24 0c-2 .4-3.82 1.53-5.3 3.16h3.56A9.91 9.91 0 0 1 18.72.19zm-2.65.16c-1.9.62-3.64 1.65-5.1 3h1.48a11.46 11.46 0 0 1 3.62-3zm12.2 3h1.5A13.82 13.82 0 0 0 24.68.4c1.34.7 2.54 1.7 3.56 2.96zM10.2 4.1a13.77 13.77 0 0 0-2.6 4.04h2.3a14.8 14.8 0 0 1 2-4.04h-1.7zm.47 4.04h5.2c.2-1.5.5-2.86.86-4.04H12.8a14.64 14.64 0 0 0-2.13 4.04zM17.5 4.1a26.65 26.65 0 0 0-.88 4.04h7.46a25.37 25.37 0 0 0-.9-4.04H17.5zm6.46 0c.36 1.18.66 2.54.87 4.04h5.2A13.65 13.65 0 0 0 27.9 4.1h-3.94zm4.86 0c.83 1.2 1.5 2.55 2 4.04h2.3a13.54 13.54 0 0 0-2.63-4.04H28.8zM7.3 8.87a14.13 14.13 0 0 0-.82 4.73h2.57c0-1.65.22-3.24.62-4.73H7.3zm3.14 0a17.32 17.32 0 0 0-.65 4.73h5.72c0-1.67.1-3.26.26-4.73h-5.34zm6.08 0a41.39 41.39 0 0 0-.26 4.73h8.2c0-1.67-.1-3.26-.28-4.73h-7.66zm8.4 0c.18 1.48.27 3.06.27 4.73h5.72c0-1.66-.23-3.25-.65-4.73h-5.34zm6.12 0c.4 1.5.62 3.08.62 4.73h2.57c0-1.6-.28-3.2-.83-4.73h-2.36zM0 15v1.42h41V15H0zm1.4 2.9v14.02h5.44v-14H1.4zm10.83 0v14.02h5.43v-14h-5.43zm10.82 0v14.02h5.43v-14h-5.43zm10.82 0v14.02h5.44v-14h-5.43zM0 34.48h41v-1.4H0v1.4z"/></svg><svg width="36" height="36" viewBox="-1 -1 194.5 194.5" id="Wikivoyage-logo_sister" y="446" xmlns="http://www.w3.org/2000/svg"><path fill="#396" d="M91.48 116.65l47.92 72.57 5.2-86.8a55 55 0 0 1-53.12 14.23z"/><path fill="#900" d="M150.33 81.06l38.89-77.78-77.78 38.89a55 55 0 0 1 38.89 38.9z"/><path fill="#069" d="M90.09 47.9L3.28 53.1l72.57 47.92a55 55 0 0 1 14.24-53.13z"/></svg><svg width="37" height="37" viewBox="-1 -1 352 352" id="Wiktionary-logo_sister" y="482" xmlns="http://www.w3.org/2000/svg"><defs><linearGradient id="ma"><stop offset="0" stop-color="#f4e3ca"/><stop offset="1" stop-color="#e9cc9d"/></linearGradient><linearGradient id="mb"><stop offset="0" stop-color="#0036d4"/><stop offset="1" stop-color="#010057"/></linearGradient><linearGradient xlink:href="#ma" id="mc" gradientUnits="userSpaceOnUse" gradientTransform="translate(-2383.4 667) scale(3.053)" x1="870.86" y1="-140.09" x2="795.29" y2="-169.78"/><linearGradient xlink:href="#mb" id="md" gradientUnits="userSpaceOnUse" gradientTransform="matrix(2.04906 -.50644 .57986 2.07962 -647.13 -304.35)" x1="370.37" y1="344.23" x2="283.23" y2="259.18"/></defs><g transform="translate(-17.7 -6.6) scale(1.03655)" stroke="#000"><rect transform="matrix(.9871 -.1602 .1692 .98558 0 0)" y="75.56" x="13.21" ry="37.49" rx="27.96" height="273.34" width="274.39" fill="#e7c78d" stroke-width="3.31" stroke-linecap="round" stroke-linejoin="round"/><rect transform="matrix(.9871 -.1602 .1692 .98558 0 0)" y="56.55" x="19.58" ry="37.49" rx="27.96" height="273.34" width="274.39" fill="url(#mc)" stroke-width="3.31" stroke-linecap="round" stroke-linejoin="round"/><path fill="url(#md)" stroke-width="2.49" d="M294.4 64.78l.72 4.93c-4.48.65-7.98 2.02-10.52 4.11-2.54 2.1-4.73 5.64-6.58 10.62-1.23 3.36-2.8 11.16-4.7 23.42l-26.34 152.62-5.07.73-56.24-109.85-21.81 121.19-4.56.66-73.26-142.64c-5.46-10.65-8.85-16.91-10.16-18.81a17.41 17.41 0 0 0-8.02-6.53c-3.16-1.22-7.23-1.47-12.21-.74l-.73-4.93 63.6-9.24.73 4.93-3.04.44c-4.47.65-7.74 2.22-9.79 4.7a10.12 10.12 0 0 0-2.4 8.24c.46 3.1 3.37 9.99 8.75 20.64l48.83 96.5 15.75-90.36-7.31-14.45-5.85-11.54c-2.43-4.19-5-7.8-7.69-10.86a16.08 16.08 0 0 0-4.69-3.68 22.7 22.7 0 0 0-6.84-2.55c-1.69-.3-4.26-.2-7.72.3l-.73-4.92 66.9-9.72.73 4.93-4.56.67c-4.73.68-8.04 2.25-9.92 4.7-1.88 2.46-2.55 5.5-2.02 9.14.67 4.53 3.74 12.17 9.21 22.9l47.48 93.43 17.96-104.3c2.09-11.55 2.82-19.46 2.19-23.73-.3-2.04-1.2-3.86-2.69-5.46a9.95 9.95 0 0 0-5.18-3.06c-3.39-.78-7.66-.8-12.82-.05l-.73-4.93 51.32-7.45z"/></g></svg><svg width="12" height="8" viewBox="-1 -1 12 8" id="arrow-down" y="519" xmlns="http://www.w3.org/2000/svg"><path fill="none" stroke="#505356" stroke-width="1.11" d="M.56.55L5 4.9 9.44.54"/></svg><svg width="12" height="8" viewBox="-1 -1 12 8" id="arrow-down-blue" y="527" xmlns="http://www.w3.org/2000/svg"><path fill="none" stroke="#36d" stroke-width="1.11" d="M.56.55L5 4.9 9.44.54"/></svg><svg width="58" height="58" viewBox="-1 -1 58 58" id="noimage" y="535" xmlns="http://www.w3.org/2000/svg"><path fill="#eaecf0" d="M0 0h56v56H0z"/><path fill="#72777d" d="M36.4 13.5H17.8v24.9c0 1.4.9 2.3 2.3 2.3h18.7v-25c.1-1.4-1-2.2-2.4-2.2zM30.2 17h5.1v6.4h-5.1V17zm-8.8 0h6v1.8h-6V17zm0 4.6h6v1.8h-6v-1.8zm0 15.5v-1.8h13.8v1.8H21.4zm13.8-4.5H21.4v-1.8h13.8v1.8zm0-4.7H21.4v-1.8h13.8v1.8z"/></svg><svg width="22" height="22" viewBox="-1 -1 22 22" id="search-icon" y="593" xmlns="http://www.w3.org/2000/svg"><path fill="#fff" d="M19.74 17.75l-5.3-5.3-.37-.22a7.66 7.66 0 0 0 1.43-4.48A7.76 7.76 0 0 0 7.75 0a7.75 7.75 0 0 0-5.48 13.24 7.75 7.75 0 0 0 5.48 2.27 7.72 7.72 0 0 0 4.49-1.44l.21.38 5.3 5.3c.42.4 1.2.31 1.76-.24.55-.56.65-1.34.23-1.77v.01zM7.75 12.69a4.94 4.94 0 0 1-4.94-4.94 4.95 4.95 0 0 1 4.94-4.93 4.94 4.94 0 0 1 4.94 4.93 4.94 4.94 0 0 1-4.94 4.94z"/></svg><svg width="25" height="18" viewBox="-1 -1 25 18" id="translate-icon" y="615" xmlns="http://www.w3.org/2000/svg"><path fill="#36d" fill-rule="evenodd" d="M19 12.4l1.3 3.6h1.8L17.9 3h-2.5L11 16h1.8l1.2-3.6h5zm-2.5-7.9l2.1 6.2h-4.2l2.1-6.2zM7.1 2H8L7 0H5l.5 1c.3.6.9 1 1.6 1zm3.8 2.5h2l.5-1.5H1v1.5h1.9c.6 1.8 1.5 3.3 2.8 4.7-1.4 1.1-3.1 1.7-4.8 2.3l.5 1.5c2-.6 3.8-1.4 5.5-2.7.9.7 2.1 1.4 3.5 1.8l.5-1.5c-1.1-.3-2-.8-2.8-1.4 1.9-1.9 2.5-3.8 2.6-4l.2-.7zm-4 3.7c-1-1-1.9-2.3-2.3-3.7h4.7c-.5 1.4-1.4 2.6-2.4 3.7-1.6-1.7 0 0 0 0z"/></svg><svg width="42" height="42" viewBox="-1 -1 86 86" id="wikipedia_app_tile" y="633" xmlns="http://www.w3.org/2000/svg"><path fill="none" opacity=".2" d="M0 0h84v84H0z"/><path opacity=".2" d="M2 12a8 8 0 0 1 8-8h64a8 8 0 0 1 8 8v64a8 8 0 0 1-8 8H10a8 8 0 0 1-8-8z"/><rect x="2.83" y="2.83" width="78.33" height="78.33" rx="7.17" ry="7.17" fill="#fff"/><path fill="#eaecf0" d="M74 3.67A6.34 6.34 0 0 1 80.33 10v64A6.34 6.34 0 0 1 74 80.33H10A6.34 6.34 0 0 1 3.67 74V10A6.34 6.34 0 0 1 10 3.67h64M74 2H10a8 8 0 0 0-8 8v64a8 8 0 0 0 8 8h64a8 8 0 0 0 8-8V10a8 8 0 0 0-8-8z"/><path fill="#000222" fill-rule="evenodd" d="M69.73 26.61a5.25 5.25 0 0 0-3.05 1.22 11.53 11.53 0 0 0-2.45 4L51.37 61.42q-.13.41-.71.41a.79.79 0 0 1-.71-.41L42.74 46l-8.3 15.41a.79.79 0 0 1-.71.41.71.71 0 0 1-.73-.41l-12.63-29.6A10.35 10.35 0 0 0 17.88 28a6.74 6.74 0 0 0-3.66-1.35.49.49 0 0 1-.38-.22.78.78 0 0 1-.18-.5q0-.72.4-.72 1.69 0 3.53.15t3.23.15q1.54 0 3.63-.15t3.88-.15q.4 0 .4.72t-.25.72a4.9 4.9 0 0 0-2.66.88 2.35 2.35 0 0 0-1 2 4.06 4.06 0 0 0 .4 1.55l10.49 24 5.93-11.44-5.53-11.83a15.33 15.33 0 0 0-2.45-4.08 4.84 4.84 0 0 0-2.9-1.12.45.45 0 0 1-.34-.22.82.82 0 0 1-.16-.5q0-.72.35-.72a28.63 28.63 0 0 1 3.1.15 25.75 25.75 0 0 0 2.9.15q1.51 0 3.2-.15t3.43-.15q.4 0 .4.72t-.25.72q-3.38.23-3.38 2A6.4 6.4 0 0 0 40.8 31l3.66 7.58 3.63-6.93a5.67 5.67 0 0 0 .76-2.47q0-2.37-3.38-2.53-.3 0-.3-.72a.88.88 0 0 1 .15-.49q.15-.23.3-.23 1.21 0 3 .15t2.77.15q.78 0 2.29-.13 1.92-.18 3.2-.18.3 0 .3.62 0 .82-.55.82a6.25 6.25 0 0 0-3.16 1.11 14.16 14.16 0 0 0-3 4.1L45.62 41l6.56 13.66 9.68-23a6.3 6.3 0 0 0 .5-2.32q0-2.53-3.38-2.68-.3 0-.3-.72t.45-.72q1.24 0 2.93.15t2.62.15a24.83 24.83 0 0 0 2.57-.15 27 27 0 0 1 2.75-.2q.35 0 .35.62a.94.94 0 0 1-.19.57.53.53 0 0 1-.43.25z"/></svg></svg>