<svg xmlns="http://www.w3.org/2000/svg" width="24" height="24" fill-rule="evenodd" class="vector-svg">
  <path fill="gray" stroke="gray" stroke-width="0px" stroke-linecap="round" shape-rendering="geometricPrecision"
        d="M 12 2 c 5.52 0 10 4.48 10 10 c 0 5.52 -4.48 10 -10 10 S 2 17.52 2 12 S 6.48 2 12 2 Z M 4 12 h 4.4 c 3.41 0.02 4.92 1.73 4.54 5.13 H 9.49 v 2.47 a 8 8 0 0 0 10.5 -8.08 C 19.33 12.5 18.33 13 17 13 c -2.14 0 -3.21 -0.92 -3.21 -2.75 h -3.75 c -0.27 -2.73 0.68 -4.09 2.87 -4.09 c 0 -0.97 0.33 -1.6 0.81 -1.97 A 8 8 0 0 0 4 12 Z"/>
</svg>
