<svg width="24" height="24" viewBox="0 0 24 24" xmlns="http://www.w3.org/2000/svg">
  <path fill-rule="evenodd" clip-rule="evenodd"
        d="M5 2C3.3431 2 2 3.3431 2 5V19C2 20.6569 3.3431 22 5 22H12.1297V14.1177H10.0909V11.4442H12.1297V9.4185C12.1297 7.5322 13.2679 5.6364 16.1729 5.6364C17.0621 5.6364 17.7061 5.6986 18.0204 5.7289C18.1218 5.7388 18.1889 5.7452 18.2188 5.7452L18.2727 8.5334C18.2727 8.5334 17.3857 8.5251 16.4178 8.5251C15.3703 8.5251 15.2025 8.9919 15.2025 9.7669V9.8984V11.4442H18.2188V14.1177H15.2025V22H19C20.6569 22 22 20.6569 22 19V5C22 3.3431 20.6569 2 19 2H5Z"/>
</svg>
