<svg width="24" height="24" viewBox="0 0 24 24" xmlns="http://www.w3.org/2000/svg">
  <path fill-rule="evenodd" clip-rule="evenodd"
        d="M9.82848 7.00007C9.43798 7.39057 9.43798 8.02377 9.82848 8.41427C10.2191 8.80477 10.8521 8.80477 11.2428 8.41427L14.0711 5.58588C14.8521 4.80478 16.1185 4.80478 16.8996 5.58588L18.3138 7.00007C19.0948 7.78107 19.0948 9.04737 18.3138 9.82847L15.4853 12.6569C15.0948 13.0474 15.0948 13.6806 15.4853 14.0711C15.8759 14.4616 16.509 14.4616 16.8996 14.0711L19.728 11.2427C21.2901 9.68058 21.2901 7.14788 19.728 5.58588L18.3138 4.17158C16.7517 2.60948 14.2191 2.60948 12.657 4.17158L9.82848 7.00007ZM6.99997 9.82847C7.39057 9.43797 8.02368 9.43797 8.41428 9.82847C8.80478 10.219 8.80478 10.8522 8.41428 11.2427L5.58577 14.0711C4.80477 14.8522 4.80477 16.1185 5.58577 16.8995L6.99997 18.3138C7.78107 19.0948 9.04748 19.0948 9.82848 18.3138L12.6568 15.4853C13.0475 15.0948 13.6805 15.0948 14.0711 15.4853C14.4616 15.8759 14.4616 16.509 14.0711 16.8995L11.2426 19.728C9.68048 21.2901 7.14787 21.2901 5.58577 19.728L4.17158 18.3138C2.60948 16.7517 2.60948 14.219 4.17158 12.6569L6.99997 9.82847ZM8.06058 15.8389C7.67007 15.4484 7.67007 14.8152 8.06058 14.4247L14.4247 8.06068C14.8152 7.67018 15.4483 7.67018 15.8388 8.06068C16.2293 8.45118 16.2293 9.08437 15.8388 9.47487L9.47488 15.8389C9.08428 16.2294 8.45128 16.2294 8.06058 15.8389Z"/>
</svg>
