<svg width="24" height="24" viewBox="0 0 24 24" xmlns="http://www.w3.org/2000/svg">
  <path fill-rule="evenodd" clip-rule="evenodd"
        d="M8.82848 5.99997C8.43798 6.39047 8.43798 7.02367 8.82848 7.41417C9.21908 7.80467 9.85207 7.80467 10.2428 7.41417L13.0711 4.58577C13.8521 3.80467 15.1185 3.80467 15.8996 4.58577L17.3138 5.99997C18.0948 6.78097 18.0948 8.04737 17.3138 8.82837L17.1889 8.95328C17.9616 8.97598 18.7068 9.10817 19.4094 9.33507C20.2414 7.81637 20.0143 5.87197 18.728 4.58577L17.3138 3.17158C15.7517 1.60948 13.2191 1.60948 11.657 3.17158L8.82848 5.99997ZM8.95328 17.1888C8.97598 17.9615 9.10807 18.7067 9.33487 19.4093C7.81627 20.2413 5.87197 20.0142 4.58577 18.7279L3.17158 17.3137C1.60948 15.7516 1.60948 13.2189 3.17158 11.6568L5.99997 8.82837C6.39057 8.43787 7.02368 8.43787 7.41428 8.82837C7.80478 9.21887 7.80478 9.85208 7.41428 10.2426L4.58577 13.071C3.80477 13.8521 3.80477 15.1184 4.58577 15.8995L5.99997 17.3137C6.78107 18.0948 8.04748 18.0948 8.82848 17.3137L8.95328 17.1888ZM13.657 9.65678C11.8855 10.4579 10.4579 11.8855 9.65667 13.657L8.47488 14.8388C8.08428 15.2293 7.45128 15.2293 7.06058 14.8388C6.67007 14.4483 6.67007 13.8151 7.06058 13.4246L13.4247 7.06058C13.8152 6.67007 14.4483 6.67007 14.8388 7.06058C15.2293 7.45118 15.2293 8.08428 14.8388 8.47488L13.657 9.65678ZM16.9498 22.9498C20.2635 22.9498 22.9498 20.2636 22.9498 16.9498C22.9498 13.6361 20.2635 10.9498 16.9498 10.9498C13.6361 10.9498 10.9498 13.6361 10.9498 16.9498C10.9498 20.2636 13.6361 22.9498 16.9498 22.9498ZM20.6732 15.6403C21.0545 15.2408 21.0398 14.6078 20.6402 14.2265C20.2408 13.8451 19.6078 13.8599 19.2264 14.2593L16.1316 17.5016L14.6732 15.9736C14.2918 15.5741 13.6588 15.5594 13.2594 15.9408C12.8598 16.3221 12.8451 16.9551 13.2264 17.3546L15.4083 19.6403C15.597 19.838 15.8584 19.9498 16.1316 19.9498C16.4049 19.9498 16.6662 19.838 16.855 19.6403L20.6732 15.6403Z"/>
</svg>
