<svg width="24" height="24" viewBox="0 0 24 24" xmlns="http://www.w3.org/2000/svg">
  <path fill-rule="evenodd" clip-rule="evenodd"
        d="M19.6384 12.9778C19.6815 12.6599 19.7124 12.3419 19.7124 12C19.7124 11.6581 19.6815 11.3401 19.6384 11.0222L21.8094 9.37253C22.0068 9.22256 22.0561 8.95261 21.9327 8.73065L19.8789 5.26935C19.7555 5.04739 19.478 4.96941 19.2498 5.04739L16.6902 6.04919C16.1536 5.64727 15.58 5.31734 14.9509 5.07139L14.5623 2.41992C14.5315 2.17996 14.3156 2 14.0566 2H9.94271C9.68366 2 9.46779 2.17996 9.43695 2.41992L9.05455 5.07139C8.42545 5.32334 7.85185 5.65927 7.31526 6.04919L4.75565 5.04739C4.52128 4.95741 4.2499 5.04739 4.12655 5.26935L2.0727 8.73065C1.93701 8.95261 1.99868 9.22256 2.19605 9.37253L4.36709 11.0222C4.32391 11.3401 4.29308 11.6701 4.29308 12C4.29308 12.3299 4.32391 12.6599 4.36709 12.9778L2.19605 14.6275C1.99868 14.7774 1.94934 15.0474 2.0727 15.2693L4.12655 18.7307C4.2499 18.9526 4.52745 19.0306 4.75565 18.9526L7.31526 17.9508C7.85185 18.3527 8.42545 18.6827 9.05455 18.9286L9.44312 21.5801C9.47396 21.82 9.68983 22 9.94887 22H14.0627C14.3218 22 14.5377 21.82 14.5685 21.5801L14.9509 18.9286C15.58 18.6767 16.1536 18.3407 16.6902 17.9508L19.2498 18.9526C19.4842 19.0426 19.7555 18.9526 19.8789 18.7307L21.9327 15.2693C22.0561 15.0474 22.0068 14.7774 21.8094 14.6275L19.6384 12.9778ZM12.0027 15.4973C10.0167 15.4973 8.40694 13.9256 8.40694 12C8.40694 10.0684 10.0229 8.5027 12.0027 8.5027C13.9887 8.5027 15.5985 10.0744 15.5985 12C15.5985 13.9316 13.9826 15.4973 12.0027 15.4973Z"/>
</svg>
