<svg width="24" height="24" viewBox="0 0 24 24" xmlns="http://www.w3.org/2000/svg">
  <path fill-rule="evenodd" clip-rule="evenodd"
        d="M19.5256 5.7188C20.397 5.6138 21.2274 5.3805 22 5.0353C21.4224 5.9057 20.692 6.6701 19.8501 7.282C19.8585 7.4682 19.8627 7.6555 19.8627 7.8436C19.8627 13.5792 15.5291 20.1931 7.6044 20.1931C5.1713 20.1931 2.9067 19.4744 1 18.2428C1.337 18.283 1.68 18.3035 2.0277 18.3035C4.0464 18.3035 5.9041 17.6097 7.3785 16.4455C5.4933 16.4106 3.9021 15.1556 3.3539 13.4313C3.6169 13.4819 3.8868 13.5092 4.1645 13.5092C4.5574 13.5092 4.938 13.4561 5.2996 13.357C3.3286 12.9581 1.8434 11.2039 1.8434 9.1009C1.8434 9.0826 1.8434 9.0645 1.8439 9.0464C2.4247 9.3714 3.0891 9.5667 3.7953 9.5892C2.6393 8.8109 1.8787 7.4824 1.8787 5.9765C1.8787 5.1811 2.0912 4.4355 2.462 3.7945C4.5869 6.4205 7.7616 8.1484 11.3423 8.3295C11.2688 8.0117 11.2307 7.6804 11.2307 7.3403C11.2307 4.9433 13.1599 3 15.5391 3C16.7783 3 17.8981 3.5271 18.6839 4.3706C19.6653 4.1761 20.5873 3.8148 21.4199 3.3174C21.0981 4.3309 20.4149 5.1815 19.5256 5.7188Z"
  />
</svg>
