<svg width="24" height="24" viewBox="0 0 24 24" xmlns="http://www.w3.org/2000/svg">
  <path fill-rule="evenodd" clip-rule="evenodd"
        d="M21.0737 6C21.7422 6 21.8826 6.3442 21.7422 6.8126C21.4612 8.1006 18.7679 11.8944 18.7679 11.8944C18.5338 12.2691 18.4401 12.4565 18.7679 12.878C18.8834 13.0397 19.1298 13.281 19.4117 13.5572C19.7016 13.8411 20.029 14.1618 20.2902 14.4705C21.2397 15.5388 21.9553 16.4399 22.1547 17.061C22.3369 17.6842 22.0211 18 21.3895 18H19.179C18.5869 18 18.2887 17.6684 17.6445 16.9517C17.3714 16.6479 17.0362 16.275 16.59 15.8288C15.2785 14.5642 14.7165 14.4003 14.3886 14.4003C13.9436 14.4003 13.8105 14.5263 13.775 15.1579V17.1403C13.8105 17.6842 13.6367 18 12.2316 18C9.8897 18 7.3161 16.5782 5.4894 13.9553C2.7494 10.1146 2 7.2107 2 6.6252C2 6.2973 2.1263 6 2.7579 6H4.9684C5.5334 6 5.7459 6.2473 5.9578 6.8594C7.0389 10.0087 8.8618 12.761 9.6111 12.761C9.8922 12.761 10.0211 12.6316 10.025 11.9179V8.6626C9.9719 7.7366 9.6476 7.3358 9.4076 7.039C9.2591 6.8555 9.1428 6.7117 9.1428 6.5081C9.1428 6.2609 9.354 6 9.7053 6H13.179C13.6474 6 13.775 6.2505 13.775 6.8126V11.1919C13.8031 11.6602 14.0139 11.8242 14.1544 11.8242C14.4354 11.8242 14.6696 11.6602 15.1848 11.145C16.7773 9.3652 17.9015 6.6252 17.9015 6.6252C18.042 6.2973 18.3011 6 18.8632 6H21.0737Z"
  />
</svg>
